<svg width="33" height="36" viewBox="0 0 33 36" fill="none" xmlns="http://www.w3.org/2000/svg">
<rect x="15.793" y="5.10132" width="3.64003" height="10.4329" fill="white"/>
<rect x="15.793" width="3.64003" height="3.6687" fill="white"/>
<rect x="20.9189" y="3.57129" width="3.57133" height="11.7344" transform="rotate(-90 20.9189 3.57129)" fill="white"/>
<rect x="20.9189" y="3.57129" width="3.57133" height="11.9895" fill="white"/>
<rect x="20.8661" y="15.5347" width="3.64003" height="11.8946" transform="rotate(-90 20.8661 15.5347)" fill="white"/>
<path fill-rule="evenodd" clip-rule="evenodd" d="M10.7138 35.9684H14.2852V17.6016H10.7138L10.7138 28.9204H3.64001V25.5098L-2.19345e-05 25.5098L-2.09808e-05 35.9999H3.64001V32.5604L10.7138 32.5604L10.7138 35.9684Z" fill="white"/>
<rect x="19.6415" y="35.9685" width="3.57133" height="18.3668" transform="rotate(-180 19.6415 35.9685)" fill="white"/>
<rect x="32.6523" y="35.9685" width="3.57133" height="18.3668" transform="rotate(-180 32.6523 35.9685)" fill="white"/>
<rect x="29.081" y="17.6016" width="3.57133" height="10.9691" transform="rotate(90 29.081 17.6016)" fill="white"/>
<rect x="29.081" y="32.3972" width="3.57133" height="10.9691" transform="rotate(90 29.081 32.3972)" fill="white"/>
<path fill-rule="evenodd" clip-rule="evenodd" d="M0 0H3.64003V0.0286613L10.7197 0.0286614V0H14.3597V15.5346H10.7197V3.6687L3.64003 3.66869V22.6427H0V0Z" fill="white"/>
</svg>
